# xmcd
#
# Track frame offsets:
#	182
#	15755
#	33795
#	56245
#	73917
#	106457
#	123967
#	145892
#	165887
#	186032
#	200270
#	216422
#	228090
#	252482
#	272372
#	290715
#	303112
#
# Disc length: 4263 seconds
#
# Revision: 1
# Processed by: cddbd v1.5.1PL2 Copyright (c) Steve Scherf et al.
# Submitted via: audiograbber 1.83.01
#
DISCID=ea10a511
DTITLE=Various Artist - Love Album
DYEAR=1995
DGENRE=Ballad
TTITLE0=Queen - The Great Pretender
TTITLE1=Marvin Gaye - Sexual Healing
TTITLE2=Gary Moore - Parisienne Walkways
TTITLE3=Scorpions - Still Loving You
TTITLE4=The Christians - Words
TTITLE5=Joe Cocker and Jennifer Warnes - Up Where We Belong
TTITLE6=Billy Paul - Me And Mrs Jones
TTITLE7=Ten Sharp - You
TTITLE8=Bryan Ferry - Slave To Love
TTITLE9=Lenny Kravitz - Heaven Help
TTITLE10=James Brown - It's A Man's Man's World
TTITLE11=Erma Franklin - Piece Of My Heart
TTITLE12=Meat Loaf - I'd Do Anything For Love
TTITLE13=Boy George - To Be Reborn
TTITLE14=Axelle Red - Elle Danse Seule
TTITLE15=Rare Bird - Sympathy
TTITLE16=Lenny McDaniel - Rosa
EXTD=
EXTT0=
EXTT1=
EXTT2=
EXTT3=
EXTT4=
EXTT5=
EXTT6=
EXTT7=
EXTT8=
EXTT9=
EXTT10=
EXTT11=
EXTT12=
EXTT13=
EXTT14=
EXTT15=
EXTT16=
PLAYORDER=
